<?xml version="1.0" encoding="utf-8"?>
<!-- Svg Vector Icons : http://www.onlinewebfonts.com/icon -->
<!DOCTYPE svg PUBLIC "-//W3C//DTD SVG 1.1//EN" "http://www.w3.org/Graphics/SVG/1.1/DTD/svg11.dtd">
<svg version="1.1" xmlns="http://www.w3.org/2000/svg" xmlns:xlink="http://www.w3.org/1999/xlink" x="0px" y="0px" viewBox="0 0 1000 1000" enable-background="new 0 0 1000 1000" xml:space="preserve">
<metadata> Svg Vector Icons : http://www.onlinewebfonts.com/icon </metadata>
<g><path d="M921.2,729c-23,51-34.1,73.8-63.7,118.9c-41.3,62.9-99.6,141.3-171.9,142c-64.2,0.6-80.6-41.8-167.8-41.3c-87.1,0.5-105.3,42-169.5,41.4c-72.2-0.7-127.5-71.5-168.8-134.4C63.9,679.6,51.8,473,123.1,363.2c50.7-78,130.7-123.7,205.9-123.7c76.6,0,124.7,42,188,42c61.4,0,98.8-42,187.3-42c66.9,0,137.8,36.4,188.3,99.4C727.1,429.5,754,665.8,921.2,729z M637.1,169.1c32.2-41.3,56.6-99.6,47.7-159.1c-52.5,3.6-114,37-149.9,80.6c-32.6,39.5-59.4,98.2-49,155.2C543.4,247.6,602.7,213.3,637.1,169.1z"/></g>
</svg>