<svg xmlns="http://www.w3.org/2000/svg" viewBox="0 0 39.88 46.4"><defs><style>.cls-1{fill:#fff;}</style></defs><g id="Camada_2" data-name="Camada 2"><g id="Camada_1-2" data-name="Camada 1"><path class="cls-1" d="M39.88,34a33.29,33.29,0,0,1-3,5.63c-2,3-4.71,6.69-8.13,6.72-3,0-3.82-2-7.95-2s-5,2-8,2c-3.42,0-6-3.39-8-6.37-5.48-8.33-6-18.11-2.67-23.31,2.4-3.69,6.18-5.85,9.74-5.85s5.91,2,8.9,2,4.68-2,8.87-2a11.83,11.83,0,0,1,8.92,4.7C30.69,19.86,32,31.05,39.88,34ZM26.43,7.53A10.16,10.16,0,0,0,28.69,0a11,11,0,0,0-7.1,3.82c-1.54,1.87-2.81,4.65-2.32,7.34A9.27,9.27,0,0,0,26.43,7.53Z"/></g></g></svg>