<svg xmlns="http://www.w3.org/2000/svg" viewBox="0 0 38.72 41.7"><defs><style>.cls-1{fill:#fff;}</style></defs><g id="Camada_2" data-name="Camada 2"><g id="Camada_1-2" data-name="Camada 1"><path class="cls-1" d="M0,2.56V39.14a.4.4,0,0,0,.4.4.44.44,0,0,0,.29-.11l19-18.58L.69,2.27a.41.41,0,0,0-.57,0A.36.36,0,0,0,0,2.56Z"/><path class="cls-1" d="M27.72,13.22,3.84.06h0a.41.41,0,0,0-.46.66l18.72,17.9Z"/><path class="cls-1" d="M3.36,41a.41.41,0,0,0,.46.66h0L27.72,28.48l-5.64-5.39Z"/><path class="cls-1" d="M37.36,18.52l-6.67-3.67-6.27,6,6.27,6,6.67-3.67A2.67,2.67,0,0,0,37.36,18.52Z"/></g></g></svg>